<svg xmlns="http://www.w3.org/2000/svg" viewBox="0 0 1268.91 445.16"><defs><style>.cls-1{fill:#7ab92a;}.cls-2{fill:#FFFF;}</style></defs><g id="Laag_2" data-name="Laag 2"><g id="Laag_1-2" data-name="Laag 1"><path class="cls-1" d="M1226,0c.41,2-.67,3.54-1.33,5.22-1.83,4.63-3.85,9.18-5.51,13.87-.63,1.77-2.58,3.95.38,5.65,2.55,1.46,3.61-.8,5-2,5.43-4.65,10.77-9.39,16.16-14.1.62-.54,1.3-1,2-1.54,1.47-1.11,2.84-1.54,4.36.1s.32,2.66-.58,3.82c-4,5.14-8,10.24-11.81,15.46-1,1.34-3,2.78-1.48,4.74s3.36.27,5-.28c4.87-1.65,9.7-3.44,14.58-5.08,2-.66,4.28-2,5.72.73,1.59,3-1.3,3.59-2.93,4.72-3.83,2.65-7.73,5.18-11.55,7.85-.85.6-2.33,1.16-1.61,2.64.48,1,1.69.9,2.69.93a94.25,94.25,0,0,1,14.43,1c1.72.32,3.47.53,3.22,2.86-.2,1.92-1.5,2.86-3.37,3.06a4.23,4.23,0,0,1-.5.05c-15.35-1-28.26,6.31-41.6,12.14-2.47,1.08-4.8,1.95-7.64,1.22-3.47-.9-6.72-.05-10.08,1.45q-28.92,12.87-58,25.26c-5.25,2.22-11.12,1.87-16.74,1.78a35.68,35.68,0,0,0-15.87,3.35,289.36,289.36,0,0,1-47,16.49c-12.56,3.3-24.66,7.28-36.1,13.74-5.56,3.14-9.23,6.19-11,12.54-2.43,8.8-6.45,16.88-13.74,23.18-5.3,4.58-8.43,10.63-10.24,17.76-5.39,21.22-11.37,42.3-17.47,63.33-3.77,13-12.48,23.33-19.7,34.43-2.2,3.38-2.77-.39-3.32-1.44-9.83-18.78-25.08-30.64-45.57-35.84a56,56,0,0,0-10.76-2c-4.08-.2-5.12-2.18-5.27-5.82A360.14,360.14,0,0,1,889.8,187a234.58,234.58,0,0,1,7.7-41.56c.82-3,.2-3.48-2.74-3.69-7.1-.5-13.6.07-19.91,4.18-5.06,3.3-11.37,1.3-17.12,1.53-3,.11-5.83.06-8.5,2s-5.83,1.38-8.74.9c-12.62-2.07-25.2-4.35-37.79-6.53-1.52-.26-3-.53-3.69-2.13-.92-2-1.49-3.67,1.79-4.17,4.59-.69,9.09-2,13.68-2.69,3.24-.49,4.85-2.18,5.9-5.16,1.68-4.76,1.74-9.79,2.86-14.62a52.07,52.07,0,0,1,1.42-6.31c.81-2.18.61-5.76,3.87-5.63s1.75,3.63,2.37,5.55a102.17,102.17,0,0,1,2.21,10.2,3,3,0,0,0,2.52,2.72c2.06.33,1.91-1.56,2.34-2.61,1.5-3.68,2.75-7.47,4.22-11.16.57-1.41.87-3.74,3.18-2.89a3.94,3.94,0,0,1,2.69,4.73c-.83,4.84-1.87,9.68-1.62,14.82,2.92-.52,4.38-2.75,6.34-4.16,1.59-1.14,2.93-2.09,4.87-.64,2.2,1.64.83,3.17.06,4.76-.56,1.17-1.13,2.33-2.24,4.62,4.87-2,8.67-3.85,12.63-5.22,7.93-2.74,15.49-6,24.61-4.12,4.72,1,10.78-2.21,13.78-6.64,5.78-8.52,13.88-13.12,23.17-16.32,13.57-4.66,26.81-10.3,41-13l-.2-1.23c-5.75,0-11.51-.14-17.26.06-3,.09-4.46-1.32-5.78-3.71a37.77,37.77,0,0,1-4.68-23.53c1.46-11.92,4.14-23.51,9.35-34.43a17.63,17.63,0,0,1,12.12-10.16c8.46-2.2,16.88-3.62,25.61-1.81a34.32,34.32,0,0,1,9.79,3.56c9.48,5.29,11.61,10.11,9.8,20.87-1.44,8.5-5.32,16-9,23.64-2.94,6.15-5.81,12.3-6.27,19.29-.18,2.87.32,4.08,3.65,4.06,9.08-.07,17.61-3.39,26.61-3.9,5-.29,9.94-.69,14.91.22,8.09,1.49,15.82-1.36,23.72-2.13,7.11-.69,14.18-1.82,21.25-2.81,2.12-.3,4.31-.32,6.24-1.52,13.4-8.28,28.46-10.45,43.73-12.39,16.82-2.13,33.5-5.21,50.29-7.6,3.79-.54,3.4-1.57,1.83-4.19a109.77,109.77,0,0,1-7.81-17.21c-.56-1.47-1.89-3.12,0-4.47a4.55,4.55,0,0,1,6,.45c2,1.74,3.66,3.87,5.61,5.67,2.65,2.45,5.15,2.63,7.54-.6,7.37-10,14.84-19.9,22.27-29.85ZM1000,129.5a16.85,16.85,0,0,0-6.91,4.64c-15.08,15.5-31.12,29.83-50,40.66-.51.29-1,.63-.83,1.26l23.73-2.7.57.58c-9.88,12.31-22.87,20.3-37.24,26.43a260.59,260.59,0,0,0,34.49-.84c5.67-.58,9.16-3.13,10.57-8.74,1.14-4.5,2.53-9,2.81-13.61a36.9,36.9,0,0,1,6.25-18c6.07-9.51,11.66-19.31,17.44-29,.07-.39.13-.78.2-1.17Z"></path><path class="cls-2" d="M1267.51,233.05q-51.9,0-103.81-.1c-2.83,0-3.23,1.26-3.21,3.62.09,8,.17,16,0,23.92-.09,3.2,1.14,3.87,4.06,3.82,8.81-.17,17.65.24,26.44-.18,4.73-.23,5.65,1.34,5.63,5.76-.17,39.55,0,79.09-.2,118.64,0,4.18,1.12,5.35,5.26,5.19,8.3-.33,16.64-.34,24.94,0,4.24.18,5.51-.78,5.48-5.31-.21-39.88-.07-79.75-.21-119.63,0-3.7.82-4.77,4.6-4.63,8.64.31,17.3,0,26,.16,3.09.07,4.42-.66,4.67-4,.23-3-.18-6.21,1.83-8.86v-18A4.91,4.91,0,0,0,1267.51,233.05Z"></path><path class="cls-2" d="M787.73,366.37a80.52,80.52,0,0,0-11.92-1c-10.82-.13-21.64,0-32.46-.08-6.5-.06-9-3.37-7.51-9.72.36-1.61,1-3.14,1.56-4.71,1-3.12,2.8-4.48,6.34-3.59,6.19,1.57,12.57,1.42,18.87.86,32.33-2.88,40.35-26.55,35.81-47.86-1.29-6.08-1.64-6,4.62-6.86a9.53,9.53,0,0,1,1.49-.15c3.62.14,5.39-1.54,5.58-5.2.23-4.48.57-9,1.11-13.4.51-4.16-.57-5.64-5.25-5.6-14.6.11-29.23.9-43.8-1.57a62.41,62.41,0,0,0-24.3.76c-15,3.4-25.8,11.73-30,26.72-4.29,15.27-2.69,29.72,9.63,41.3,1.81,1.71,1.56,2.63.35,4.43-2.77,4.14-4.53,8.83-6.71,13.29-5.07,10.4-6.35,20.5,1.15,30.28,2,2.61.11,4-1.39,5.34-13.87,12.55-10,39.84,9.62,49.13,10.48,5,21.59,6.31,33,6.39A121.74,121.74,0,0,0,769.9,444c29.13-4,44.42-23.24,41.51-52.22C810,377.35,802,368.73,787.73,366.37Zm-51.17-62.61c1-8.07,4.37-12.73,11.25-14,12-2.12,22.8.67,22.74,17.5.05,15.07-11.32,22.64-25.41,16.92-.31-.13-.61-.26-.9-.4C738.29,320.9,735.43,313.41,736.56,303.76Zm40.35,109.51c-3.39,3-7.61,4-11.89,4.66-3.11.47-6.29.47-9.59.69-4.3-.65-8.81-.25-13.24-1.37A15,15,0,0,1,732.61,396c1-2,2.61-1.68,4.24-1.68,11.16,0,22.31-.11,33.47.06,3.78.06,8.31-1.07,10.36,3.84C782.61,402.82,780.8,409.8,776.91,413.27Z"></path><path class="cls-2" d="M550.76,378.68c0-25.28.09-50.55,0-75.83-.08-19.28-10.78-32.78-27.76-35.36-14.61-2.22-27.74.81-38.9,10.94-1,.91-1.86,2.83-3.61,1.87-1.35-.74-.59-2.44-.6-3.68-.05-17.29-.14-34.58.05-51.87,0-3.74-.6-5-4.61-4-7.74,1.88-15.58,3.41-23.43,4.82-3.31.6-4.48,1.8-4.46,5.45.21,26.43.11,52.87.11,79.31,0,26.1.12,52.21-.11,78.31,0,4.29,1.19,5.28,5.26,5.09a196.19,196.19,0,0,1,22,0c4.7.31,5.32-1.44,5.29-5.56q-.29-37.15,0-74.32c0-4.2-2-9.44,1.05-12.4,4.11-4,10.19-5.36,16.05-6a45,45,0,0,1,7-.15c11,.49,14.49,4.12,14.5,15.08,0,26.27,0,52.54-.07,78.81,0,3.29.51,4.69,4.25,4.54,8-.3,16-.22,24,0,3.13.07,4.53-.6,4.23-4.05C550.52,386,550.76,382.33,550.76,378.68Z"></path><path class="cls-2" d="M111.89,353.79c-11.26,6.63-23.12,9.9-35.68,11.09C58.12,366.6,45.4,358,41.14,340.35a116,116,0,0,1-.78-50.41c4.22-21.19,16.18-29.62,37.77-27.82a97.15,97.15,0,0,1,30.62,7.71,249.07,249.07,0,0,0,4.7-27.51c.42-3.25-.47-4.76-3.53-5.75-12.79-4.13-25.95-5.7-39.28-6-32.07-.84-56.38,16.71-65.84,47.35C-.19,294-.7,310.55.62,327.2a96.27,96.27,0,0,0,7.29,30.86q12.94,29.94,45,36.17a98.5,98.5,0,0,0,60.85-7.1c1.57-.71,3.53-1.11,3.27-3.69C116,373.55,114.66,363.72,111.89,353.79Z"></path><path class="cls-2" d="M1152.38,357c-.62-2.84-1.31-3.11-3.79-1.7-10.29,5.84-21.52,8.59-33.23,9.61-17.62,1.53-29.48-6.57-34.37-23.55a81.71,81.71,0,0,1-3-21.14c-.28-13.81-.41-27.64,5.23-40.67q7.49-17.28,26.48-17.64a87.74,87.74,0,0,1,35.5,6.68c2.35,1,3.38,1.21,4-1.86,1.52-8.17,2.87-16.35,3.91-24.59.42-3.25-.78-4.71-3.8-5.67-12.64-4-25.64-5.55-38.8-6-31.45-1-55.61,16-65.54,45.74-4,12.12-5.3,24.6-5.31,37.28a136.92,136.92,0,0,0,1.6,22.34c5.37,33.15,23.5,56.26,60.37,59.76a98.81,98.81,0,0,0,51.54-8.41c2-.94,3.59-1.73,3.3-4.67A220.4,220.4,0,0,0,1152.38,357Z"></path><path class="cls-2" d="M677.58,363.77c-7.08-.4-8.53-1.51-8.57-8.55-.06-11.64,0-23.28,0-34.92,0-9.65-.85-19.39.25-28.91,1.08-9.37-3.27-13.74-11-16.59-.62-.23-1.21-.54-1.83-.78-23.49-9.33-47.37-8.88-71.52-3-2.61.63-2.86,1.84-2.69,4.2.52,7.32,2.07,14.46,3.31,21.65.57,3.27,1.56,3.86,4.88,2.75a76.06,76.06,0,0,1,35.41-3.22C637.16,298,638,298.92,638,310.23v2c0,8.71,0,8.71-8.48,9.27-1.66.1-3.32.2-5,.28-11.45.54-22.94.81-33.77,5.38q-14.35,6.07-18,21.09a50.18,50.18,0,0,0-1,17.35c1.45,13.74,8.06,24,21.65,28.18,16.85,5.17,32.55,2.4,46.46-8.76,1.66-1.32,2.58-2.61,4.39.25,7.59,12,28.86,14.92,39.74,5.73,5.28-4.46,9.86-20.27,6.11-25.88C687.58,361.34,681.85,364,677.58,363.77ZM638,357.63c0,9.15-.13,9.35-9,11.79-5.16,1.42-10.39,2.27-15.75,1.39-5.2-.85-8.23-3.82-9-9.17a29,29,0,0,1,.32-9.89,8.85,8.85,0,0,1,6.78-7.23c8.15-2,16.54-.95,24.8-1.62,2.11-.17,1.77,1.51,1.79,2.78,0,2.82,0,5.64,0,8.46Z"></path><path class="cls-2" d="M236.48,363.68c-1,0-2,0-3,0-6.17-.15-7.71-1.62-7.74-7.71-.05-11.79,0-23.59,0-35.39,0-9.64-.83-19.37.23-28.89s-3.26-14.07-11.19-17l-.93-.36c-23.73-9.73-47.92-9.28-72.4-3.36-2.37.57-2.75,1.72-2.64,3.8.42,7.48,2.06,14.78,3.35,22.13.55,3.13,1.58,3.73,4.86,2.66,13.34-4.36,26.95-5.42,40.76-2.1,4.79,1.15,7.61,3.3,6.74,8.9a45.57,45.57,0,0,0,0,11c.32,3.43-1.16,4.06-4.19,4.17-9.62.32-19.3.22-28.83,1.8-10.69,1.77-21.18,4.64-27.36,14.41-8.26,13.07-8.22,27.22-2,40.94,5.77,12.62,17.41,16.57,30.33,17.4s24.22-3.06,34.19-11.18c1-.85,2.2-3.18,3.72-.29,6.27,11.92,17.28,12.47,28.49,11.08,12.36-1.54,17.82-8.35,18.16-20.92C247.34,363.69,247.34,363.69,236.48,363.68Zm-42-9c0,.66,0,1.32,0,2,0,10.16-.83,11.25-10.8,13.32a41.56,41.56,0,0,1-11.35,1.09c-2.67-.19-5.35-.6-7.47-2.32-5.54-4.52-4.33-10.79-3.62-16.59.62-5,4.26-7.41,9.25-8.21,4.13-.66,8.25-.52,12.26-.79,3.86.23,8.95-1.86,11,.52S194.31,350.94,194.43,354.72Z"></path><path class="cls-2" d="M884.87,267c-29.48-2.41-52.51,13.54-60.25,41.85-3.1,11.36-3.25,23-2.24,34.61,2.63,30.24,19.36,48.49,48,52.29,26.84,3.56,50.28-9.56,60.39-33.95,4.07-9.8,5.53-20.12,5.49-31.88.2-3.81-.45-8.76-1-13.71C932,287.22,913.7,269.35,884.87,267Zm13.2,88.61c-3.59,9.2-10.59,13.55-20.66,13.07-9.66-.46-15.49-4.91-18-14.92a89.17,89.17,0,0,1,.1-43.85c2.68-10.5,9.81-15.78,19.69-15.71s16.69,5.41,19.78,15.74a64.91,64.91,0,0,1,2.39,21.2C901.59,339.79,901.08,347.89,898.07,355.61Z"></path><path class="cls-2" d="M424.55,365.82c-.37-2.43-1.32-3.21-4-2.21A42.79,42.79,0,0,1,404,366.3c-11-.37-14-3.2-14-14.09-.13-16.95,0-33.9-.1-50.85,0-3.08.83-4,3.92-3.92,7.48.21,15-.1,22.46.15,3.21.1,4.8-.46,4.88-4.09.14-6.46.58-12.92,1.15-19.36.32-3.73-.65-5.2-4.77-5-7.81.37-15.64-.05-23.46.18-3.27.09-4.28-.85-4.19-4.16.22-8.62.07-17.25.07-26.57-6.73,1.36-12.92,2.58-19.09,3.87-4.2.88-9.67.6-12.23,3.17-2.87,2.88-.87,8.5-.93,12.92-.15,10.37-.05,10.38-10.52,10.7a2.77,2.77,0,0,1-.5,0c-2.43-.36-3.13.72-3.06,3.07.15,5.48,0,11,0,16.45,0,8.74,0,8.95,8.8,8.66,4-.13,5.34.84,5.3,5.1-.2,18.28-.26,36.57.13,54.84.43,20.61,10.86,33.78,29,37.52,12.91,2.66,25.42.82,37.78-3.23,2.85-.93,3.52-2.47,3.08-5.17C426.6,379.6,425.6,372.71,424.55,365.82Z"></path><path class="cls-2" d="M1022.21,236.48c0-2.93-.93-3.61-3.68-3.56-9.15.15-18.32.29-27.47,0-4.19-.16-4.81,1.43-4.79,5.11.15,24.94.08,49.88.08,74.83,0,25.44,0,50.88-.07,76.32,0,3.29.57,4.7,4.28,4.6,9.32-.27,18.65-.18,28,0,2.74,0,3.69-.63,3.68-3.57Q1022.08,313.32,1022.21,236.48Z"></path><path class="cls-2" d="M330.51,267.23c-10.24-1.64-18.67,1.48-25.49,9.16-2.36,2.66-4.63,5.4-6.94,8.09l-1.08-.57c0-4.12-.11-8.25,0-12.37.08-2.25-.37-3.36-3-3.17q-12.93.93-25.87,1.57c-2.63.13-3.6,1-3.59,3.86q.15,58.08,0,116.17c0,3.32,1.23,3.76,4.05,3.7,7.65-.15,15.32-.31,23,.05,4.27.2,5.54-.83,5.49-5.34-.25-25.93,0-51.85-.21-77.78,0-3.42,1.09-5,4.13-6.23,8.69-3.42,17.52-5.19,26.8-3.17,2.77.6,4,.24,4.45-3,1.11-8.73,1.72-17.5,2.4-26.27C335,268.53,333.45,267.7,330.51,267.23Z"></path><path class="cls-1" d="M966,173.36c.31-.45.68-.67,1-.12.06.09-.3.46-.47.7Z"></path></g></g></svg>